<svg xmlns="http://www.w3.org/2000/svg" width="375" viewBox="0 0 375 375" height="375" version="1.0"><defs><clipPath id="a"><path d="M 0 0 L 375 0 L 375 17.214844 L 0 17.214844 Z M 357.785156 17.214844 L 375 17.214844 L 375 357.785156 L 357.785156 357.785156 Z M 0 17.214844 L 17.214844 17.214844 L 17.214844 357.785156 L 0 357.785156 Z M 0 357.785156 L 375 357.785156 L 375 375 L 0 375 Z M 0 357.785156"/></clipPath></defs><g clip-path="url(#a)"><path fill="#FFDE59" d="M-37.5 -37.5H412.5V412.5H-37.5z"/></g><g fill="#FFDE59"><g><g><path d="M 7.289062 0 L 21.042969 0 L 21.042969 -63.773438 L 7.289062 -63.773438 Z M 7.289062 0" transform="translate(49.053 121.974)"/></g></g></g><g fill="#FFDE59"><g><g><path d="M 47.648438 -63.773438 L 47.648438 -24.871094 L 19.679688 -63.773438 L 7.289062 -63.773438 L 7.289062 0 L 20.769531 0 L 20.769531 -39.8125 L 49.652344 0 L 61.222656 0 L 61.222656 -63.773438 Z M 47.648438 -63.773438" transform="translate(81.303 121.974)"/></g></g></g><g fill="#FFDE59"><g><g><path d="M 31.339844 -63.773438 L 7.289062 -63.773438 L 7.289062 0 L 31.339844 0 C 50.105469 0 63.679688 -13.390625 63.679688 -31.886719 C 63.679688 -50.378906 50.105469 -63.773438 31.339844 -63.773438 Z M 31.066406 -12.753906 L 21.042969 -12.753906 L 21.042969 -50.925781 L 31.066406 -50.925781 C 42 -50.925781 49.558594 -43.183594 49.558594 -31.886719 C 49.558594 -20.769531 42 -12.753906 31.066406 -12.753906 Z M 31.066406 -12.753906" transform="translate(153.638 121.974)"/></g></g></g><g fill="#FFDE59"><g><g><path d="M 21.042969 -12.753906 L 21.042969 -25.875 L 43.183594 -25.875 L 43.183594 -38.355469 L 21.042969 -38.355469 L 21.042969 -51.015625 L 45.550781 -51.015625 L 45.550781 -63.773438 L 7.289062 -63.773438 L 7.289062 0 L 46.554688 0 L 46.554688 -12.753906 Z M 21.042969 -12.753906" transform="translate(224.97 121.974)"/></g></g></g><g fill="#FFDE59"><g><g><path d="M 56.664062 0 L 36.714844 -32.886719 L 55.027344 -63.773438 L 39.902344 -63.773438 L 28.425781 -44.09375 L 17.035156 -63.773438 L 1.546875 -63.773438 L 20.132812 -33.433594 L 0.273438 0 L 15.851562 0 L 28.605469 -21.863281 L 41.179688 0 Z M 56.664062 0" transform="translate(279.723 121.974)"/></g></g></g><g fill="#FFDE59"><g><g><path d="M 31.792969 -63.773438 L 7.289062 -63.773438 L 7.289062 0 L 21.042969 0 L 21.042969 -19.859375 L 31.792969 -19.859375 C 44.640625 -19.859375 54.296875 -29.242188 54.296875 -41.816406 C 54.296875 -54.386719 44.550781 -63.773438 31.792969 -63.773438 Z M 31.15625 -32.613281 L 21.042969 -32.613281 L 21.042969 -50.925781 L 31.15625 -50.925781 C 36.625 -50.925781 40.359375 -47.101562 40.359375 -41.816406 C 40.359375 -36.53125 36.625 -32.613281 31.15625 -32.613281 Z M 31.15625 -32.613281" transform="translate(49.053 220.224)"/></g></g></g><g fill="#FFDE59"><g><g><path d="M 21.042969 -12.753906 L 21.042969 -63.773438 L 7.289062 -63.773438 L 7.289062 0 L 45.550781 0 L 45.550781 -12.753906 Z M 21.042969 -12.753906" transform="translate(109.544 220.224)"/></g></g></g><g fill="#FFDE59"><g><g><path d="M 23.140625 -12.753906 L 49.46875 -61.222656 L 49.46875 -63.773438 L 3.828125 -63.773438 L 3.828125 -50.925781 L 28.96875 -50.925781 L 2.367188 -2.003906 L 2.367188 0 L 50.5625 0 L 50.5625 -12.753906 Z M 23.140625 -12.753906" transform="translate(160.926 220.224)"/></g></g></g><g fill="#FFDE59"><g><g><path d="M 5.375 0 L 19.496094 0 L 19.496094 -14.210938 L 5.375 -14.210938 Z M 5.375 0" transform="translate(49.053 318.474)"/></g></g></g></svg>